<svg width="24.000000" height="24.000000" viewBox="0 0 24 24" fill="none" xmlns="http://www.w3.org/2000/svg" xmlns:xlink="http://www.w3.org/1999/xlink">
	<desc>
			Created with Pixso.
	</desc>
	<defs/>
	<rect id="message" width="24.000000" height="24.000000" fill="#FFFFFF" fill-opacity="0"/>
	<g opacity="0.400000">
		<path id="Fill 1" d="M22 15.94C22 18.73 19.75 20.98 16.97 21L16.96 21L7.05 21C4.26 21 2 18.75 2 15.96L2 15.94C2 15.94 2 11.52 2.01 9.29C2.01 8.87 2.49 8.64 2.82 8.9C5.19 10.78 9.44 14.22 9.5 14.27C10.21 14.84 11.1 15.16 12.02 15.16C12.94 15.16 13.84 14.84 14.56 14.26C14.61 14.22 18.76 10.89 21.17 8.97C21.5 8.71 21.98 8.94 21.99 9.36C22 11.57 22 15.94 22 15.94Z" fill="#8A92A6" fill-opacity="1.000000" fill-rule="nonzero"/>
	</g>
	<path id="Fill 4" d="M21.47 5.67C20.61 4.04 18.9 3 17.03 3L7.05 3C5.17 3 3.47 4.04 2.6 5.67C2.41 6.03 2.5 6.49 2.82 6.75L10.25 12.69C10.77 13.1 11.4 13.32 12.03 13.32C12.03 13.32 12.03 13.32 12.04 13.32C12.04 13.32 12.04 13.32 12.05 13.32C12.68 13.32 13.31 13.1 13.83 12.69L21.25 6.75C21.57 6.49 21.66 6.03 21.47 5.67Z" fill="#8A92A6" fill-opacity="1.000000" fill-rule="nonzero"/>
</svg>
