<svg width="24.000000" height="24.000000" viewBox="0 0 24 24" fill="none" xmlns="http://www.w3.org/2000/svg" xmlns:xlink="http://www.w3.org/1999/xlink">
	<desc>
			Created with Pixso.
	</desc>
	<defs/>
	<rect id="notification" width="24.000000" height="24.000000" fill="#FFFFFF" fill-opacity="0"/>
	<path id="Fill 1" d="M19.76 11.64C19.03 10.79 18.7 10.05 18.7 8.79L18.7 8.37C18.7 6.73 18.33 5.67 17.51 4.62C16.25 2.98 14.12 2 12.04 2L11.95 2C9.91 2 7.86 2.94 6.57 4.51C5.71 5.58 5.29 6.68 5.29 8.37L5.29 8.79C5.29 10.05 4.98 10.79 4.23 11.64C3.67 12.27 3.5 13.08 3.5 13.95C3.5 14.83 3.78 15.66 4.36 16.33C5.11 17.14 6.17 17.65 7.26 17.74C8.83 17.92 10.4 17.99 12 17.99C13.59 17.99 15.16 17.87 16.73 17.74C17.82 17.65 18.88 17.14 19.63 16.33C20.21 15.66 20.5 14.83 20.5 13.95C20.5 13.08 20.32 12.27 19.76 11.64Z" fill="#8A92A6" fill-opacity="1.000000" fill-rule="nonzero"/>
	<g opacity="0.400000">
		<path id="Fill 4" d="M14 19.22C13.5 19.12 10.46 19.12 9.96 19.22C9.53 19.32 9.07 19.55 9.07 20.05C9.09 20.53 9.37 20.96 9.76 21.23L9.76 21.23C10.27 21.62 10.86 21.87 11.48 21.96C11.81 22.01 12.14 22.01 12.48 21.96C13.1 21.87 13.69 21.62 14.2 21.23L14.2 21.23C14.59 20.96 14.87 20.53 14.89 20.05C14.89 19.55 14.43 19.32 14 19.22Z" fill="#8A92A6" fill-opacity="1.000000" fill-rule="nonzero"/>
	</g>
</svg>
