<svg xmlns="http://www.w3.org/2000/svg" xmlns:xlink="http://www.w3.org/1999/xlink"><symbol id="arrow-left" viewBox="0 0 30 30"><g fill="none">
	<desc>
			Created with Pixso.
	</desc>
	
	<rect id="Frame 186" rx="15.000000" width="30.000000" height="30.000000" transform="translate(30.000000 0.000000) rotate(90.000000)" fill="#3A57E8" fill-opacity="1.000000"/>
	<rect id="arrow-left" width="18.000000" height="18.000002" transform="translate(6.000000 6.000000)" fill="#FFFFFF" fill-opacity="0"/>
	<rect id="arrow-left" width="18.000000" height="18.000002" transform="translate(6.000000 6.000000)" fill="#FFFFFF" fill-opacity="0"/>
	<path id="Stroke 1" d="M9.1875 15.207L20.4375 15.207" stroke="#FFFFFF" stroke-opacity="1.000000" stroke-width="2.000000" stroke-linejoin="round" stroke-linecap="round"/>
	<path id="Stroke 3" d="M13.7246 19.7227L9.1875 15.207L13.7246 10.6875" stroke="#FFFFFF" stroke-opacity="1.000000" stroke-width="2.000000" stroke-linejoin="round" stroke-linecap="round"/>
</g></symbol><symbol id="message" viewBox="0 0 24 24"><g fill="none">
	<desc>
			Created with Pixso.
	</desc>
	
	<rect id="message" width="24.000000" height="24.000000" fill="#FFFFFF" fill-opacity="0"/>
	<g opacity="0.400000">
		<path id="Fill 1" d="M22 15.94C22 18.73 19.75 20.98 16.97 21L16.96 21L7.05 21C4.26 21 2 18.75 2 15.96L2 15.94C2 15.94 2 11.52 2.01 9.29C2.01 8.87 2.49 8.64 2.82 8.9C5.19 10.78 9.44 14.22 9.5 14.27C10.21 14.84 11.1 15.16 12.02 15.16C12.94 15.16 13.84 14.84 14.56 14.26C14.61 14.22 18.76 10.89 21.17 8.97C21.5 8.71 21.98 8.94 21.99 9.36C22 11.57 22 15.94 22 15.94Z" fill="#8A92A6" fill-opacity="1.000000" fill-rule="nonzero"/>
	</g>
	<path id="Fill 4" d="M21.47 5.67C20.61 4.04 18.9 3 17.03 3L7.05 3C5.17 3 3.47 4.04 2.6 5.67C2.41 6.03 2.5 6.49 2.82 6.75L10.25 12.69C10.77 13.1 11.4 13.32 12.03 13.32C12.03 13.32 12.03 13.32 12.04 13.32C12.04 13.32 12.04 13.32 12.05 13.32C12.68 13.32 13.31 13.1 13.83 12.69L21.25 6.75C21.57 6.49 21.66 6.03 21.47 5.67Z" fill="#8A92A6" fill-opacity="1.000000" fill-rule="nonzero"/>
</g></symbol><symbol id="notification" viewBox="0 0 24 24"><g fill="none">
	<desc>
			Created with Pixso.
	</desc>
	
	<rect id="notification" width="24.000000" height="24.000000" fill="#FFFFFF" fill-opacity="0"/>
	<path id="Fill 1" d="M19.76 11.64C19.03 10.79 18.7 10.05 18.7 8.79L18.7 8.37C18.7 6.73 18.33 5.67 17.51 4.62C16.25 2.98 14.12 2 12.04 2L11.95 2C9.91 2 7.86 2.94 6.57 4.51C5.71 5.58 5.29 6.68 5.29 8.37L5.29 8.79C5.29 10.05 4.98 10.79 4.23 11.64C3.67 12.27 3.5 13.08 3.5 13.95C3.5 14.83 3.78 15.66 4.36 16.33C5.11 17.14 6.17 17.65 7.26 17.74C8.83 17.92 10.4 17.99 12 17.99C13.59 17.99 15.16 17.87 16.73 17.74C17.82 17.65 18.88 17.14 19.63 16.33C20.21 15.66 20.5 14.83 20.5 13.95C20.5 13.08 20.32 12.27 19.76 11.64Z" fill="#8A92A6" fill-opacity="1.000000" fill-rule="nonzero"/>
	<g opacity="0.400000">
		<path id="Fill 4" d="M14 19.22C13.5 19.12 10.46 19.12 9.96 19.22C9.53 19.32 9.07 19.55 9.07 20.05C9.09 20.53 9.37 20.96 9.76 21.23L9.76 21.23C10.27 21.62 10.86 21.87 11.48 21.96C11.81 22.01 12.14 22.01 12.48 21.96C13.1 21.87 13.69 21.62 14.2 21.23L14.2 21.23C14.59 20.96 14.87 20.53 14.89 20.05C14.89 19.55 14.43 19.32 14 19.22Z" fill="#8A92A6" fill-opacity="1.000000" fill-rule="nonzero"/>
	</g>
</g></symbol></svg>