<svg width="265.000000" height="84.000000" viewBox="0 0 265 84" fill="none" xmlns="http://www.w3.org/2000/svg" xmlns:xlink="http://www.w3.org/1999/xlink">
	<desc>
			Created with Pixso.
	</desc>
	<defs>
		<filter id="filter_1820_2542_dd" x="0.000000" y="0.000000" width="265.000000" height="84.000000" filterUnits="userSpaceOnUse" color-interpolation-filters="sRGB">
			<feFlood flood-opacity="0" result="BackgroundImageFix"/>
			<feColorMatrix in="SourceAlpha" type="matrix" values="0 0 0 0 0 0 0 0 0 0 0 0 0 0 0 0 0 0 127 0" result="hardAlpha"/>
			<feOffset dx="0" dy="4"/>
			<feGaussianBlur stdDeviation="1.33333"/>
			<feComposite in2="hardAlpha" operator="out" k2="-1" k3="1"/>
			<feColorMatrix type="matrix" values="0 0 0 0 0 0 0 0 0 0 0 0 0 0 0 0 0 0 0.25 0"/>
			<feBlend mode="normal" in2="BackgroundImageFix" result="effect_dropShadow_1"/>
			<feBlend mode="normal" in="SourceGraphic" in2="effect_dropShadow_1" result="shape"/>
		</filter>
		<clipPath id="clip1820_2542">
			<rect id="Logo" width="257.000000" height="76.000000" transform="translate(4.000000 0.000000)" fill="white" fill-opacity="0"/>
		</clipPath>
	</defs>
	<g filter="url(#filter_1820_2542_dd)">
		<rect id="Logo" width="257.000000" height="76.000000" transform="translate(4.000000 0.000000)" fill="#FFFFFF" fill-opacity="0"/>
		<g clip-path="url(#clip1820_2542)">
			<rect id="Frame 453" width="28.000000" height="28.000000" transform="translate(36.000000 28.000000)" fill="#FFFFFF" fill-opacity="0"/>
			<rect id="Rectangle 516" x="34.242188" y="46.242188" rx="2.000000" width="28.000000" height="4.000000" transform="rotate(-45 34.242188 46.242188)" fill="#3A57E8" fill-opacity="1.000000"/>
			<rect id="Rectangle 521" x="42.728516" y="54.726562" rx="2.000000" width="28.000000" height="4.000000" transform="rotate(-45 42.728516 54.726562)" fill="#3A57E8" fill-opacity="1.000000"/>
			<rect id="Rectangle 522" x="45.537109" y="43.394531" rx="2.000000" width="16.000000" height="4.000000" transform="rotate(45 45.537109 43.394531)" fill="#3A57E8" fill-opacity="1.000000"/>
			<rect id="Rectangle 523" x="45.556641" y="26.445312" rx="2.000000" width="28.000000" height="4.000000" transform="rotate(45 45.556641 26.445312)" fill="#3A57E8" fill-opacity="1.000000"/>
			<path id="Square" d="M78.26 53.5L74.63 53.5L74.63 29.49L78.26 29.49L78.26 39.93L90.22 39.93L90.22 29.49L93.85 29.49L93.85 53.5L90.22 53.5L90.22 43.03L78.26 43.03L78.26 53.5ZM182.93 44.99L182.93 29.49L186.56 29.49L186.56 45.28C186.56 50.32 182.77 53.89 177.02 53.89C171.27 53.89 167.49 50.32 167.49 45.28L167.49 29.49L171.11 29.49L171.11 44.99C171.11 48.24 173.37 50.59 177.02 50.59C180.68 50.59 182.93 48.24 182.93 44.99ZM191.83 29.49L195.45 29.49L195.45 53.5L191.83 53.5L191.83 29.49ZM114.82 44.58C114.82 50.14 111.5 53.86 106.42 53.86C101.35 53.86 98.03 50.14 98.03 44.58C98.03 38.98 101.35 35.26 106.42 35.26C111.5 35.26 114.82 38.98 114.82 44.58ZM122.22 60.25L118.72 60.25L118.72 35.5L122.14 35.5L122.14 38.41L122.43 38.41C123.06 37.3 124.26 35.26 127.6 35.26C131.95 35.26 135.16 38.7 135.16 44.53C135.16 50.35 131.99 53.85 127.63 53.85C124.35 53.85 123.07 51.84 122.43 50.69L122.22 50.69L122.22 60.25ZM154.34 48.99C153.54 51.92 150.77 53.86 146.84 53.86C141.53 53.86 138.28 50.2 138.28 44.61C138.28 39.08 141.58 35.26 146.6 35.26C150.67 35.26 154.57 37.8 154.57 44.31L154.57 45.55L141.77 45.55C141.86 49.02 143.88 50.97 146.88 50.97C148.87 50.97 150.39 50.1 151.03 48.4L154.34 48.99ZM146.62 38.16C143.77 38.16 141.92 40.37 141.78 42.92L151.14 42.92C151.12 40.17 149.34 38.16 146.62 38.16ZM101.57 44.57C101.57 48.02 103.12 50.92 106.44 50.92C109.73 50.92 111.28 48.02 111.28 44.57C111.28 41.12 109.73 38.19 106.44 38.19C103.12 38.19 101.57 41.12 101.57 44.57ZM126.85 38.24C123.79 38.24 122.16 40.73 122.16 44.5C122.16 48.28 123.84 50.86 126.85 50.86C129.98 50.86 131.62 48.11 131.62 44.5C131.62 40.92 130.03 38.24 126.85 38.24Z" fill="#232D42" fill-opacity="1.000000" fill-rule="evenodd"/>
		</g>
	</g>
</svg>
